# Blender v2.82 (sub 7) OBJ File: 'shield-01.blend'
# www.blender.org
mtllib shields.mtl
o Shield
v -0.232467 11.060360 2.285732
v 0.155613 11.060360 1.951832
v 0.529716 11.060360 0.016955
v 0.137353 11.060360 -1.821596
v -0.404343 11.060360 -2.155496
v 0.025566 10.512537 -1.471474
v 0.177690 10.512537 0.013387
v 0.030787 10.512537 1.603296
v -0.266332 5.690116 2.886235
v 0.498543 5.690116 1.951832
v 0.928574 5.690116 0.016955
v 0.481074 5.690116 -1.821596
v -0.404343 5.690116 -2.755998
v 0.049507 5.728244 -2.469810
v 0.113113 5.583494 0.000000
v 0.066976 5.728244 2.608814
v -0.266332 -0.322406 2.633280
v 0.548854 -0.616118 1.951832
v 0.768050 -0.993608 0.016955
v 0.515993 -0.616118 -1.821596
v -0.404343 -0.322406 -2.503043
v -0.295809 -0.206276 -2.469809
v 0.067792 0.804705 0.000000
v -0.262949 -0.206276 2.608813
v 0.384303 -1.008422 0.016955
vt 0.000000 1.000000
vt 0.000000 0.500000
vt 0.125000 0.500000
vt 0.125000 1.000000
vt 0.000000 0.000000
vt 0.125000 0.000000
vt 0.250000 0.500000
vt 0.250000 1.000000
vt 0.250000 0.000000
vt 0.375000 0.500000
vt 0.375000 1.000000
vt 0.375000 0.000000
vt 0.500000 0.500000
vt 0.500000 1.000000
vt 0.500000 0.000000
vt 0.625000 0.500000
vt 0.625000 1.000000
vt 0.625000 0.000000
vt 0.750000 0.500000
vt 0.750000 1.000000
vt 0.750000 0.000000
vt 0.875000 0.500000
vt 0.875000 1.000000
vt 0.875000 0.000000
vt 1.000000 0.500000
vt 1.000000 1.000000
vt 1.000000 0.000000
vt 0.000000 1.000000
vt 0.000000 0.000000
vt 0.000000 0.000000
vt 0.000000 0.000000
vt 0.000000 0.000000
vt 0.000000 0.000000
vt 0.000000 0.000000
vt 0.000000 0.000000
vt 0.000000 0.000000
vn 0.7387 0.0588 0.6715
vn 0.7268 0.0264 0.6864
vn 0.7299 0.0357 0.6826
vn 0.7139 -0.0115 0.7002
vn 0.9769 0.0675 0.2030
vn 0.9829 0.0191 0.1832
vn 0.9820 0.0381 0.1850
vn 0.9860 -0.0084 0.1662
vn 0.9727 0.0672 -0.2222
vn 0.9780 0.0381 -0.2051
vn 0.9788 0.0182 -0.2038
vn 0.9821 -0.0093 -0.1881
vn 0.6630 0.0629 -0.7460
vn 0.6672 0.0373 -0.7439
vn 0.6647 0.0261 -0.7466
vn 0.6656 -0.0134 -0.7462
vn -0.7616 -0.1025 0.6399
vn -0.6332 -0.0375 0.7731
vn -0.6575 -0.0245 0.7531
vn -0.5004 0.0328 0.8652
vn -0.9985 -0.0015 0.0544
vn -0.9977 0.0106 0.0674
vn -0.9975 0.0181 0.0676
vn -0.9962 0.0363 0.0798
vn -0.9989 -0.0018 -0.0459
vn -0.9983 0.0172 -0.0564
vn -0.9983 0.0101 -0.0566
vn -0.9972 0.0349 -0.0662
vn -0.8649 -0.0786 -0.4958
vn -0.7937 -0.0136 -0.6081
vn -0.7721 -0.0263 -0.6349
vn -0.6758 0.0343 -0.7363
vn -0.1287 -0.9716 0.1987
vn -0.9136 -0.3795 -0.1462
vn -0.4574 -0.8892 0.0108
vn 0.0135 -0.9998 -0.0112
vn -0.1109 -0.9718 -0.2081
vn -0.9187 0.0522 0.3916
vn -0.7814 0.5604 0.2745
vn -0.9847 -0.1739 0.0144
vn -0.9795 0.0954 -0.1773
vn -0.7281 0.4783 -0.4910
vn -0.8668 0.4161 -0.2747
vn -0.5516 0.5336 -0.6411
vn -0.8414 0.4289 0.3288
vn -0.6734 0.4908 0.5529
vn -0.4397 0.5457 0.7134
vn -0.8698 0.4934 0.0055
vn -0.8413 0.5406 0.0046
g Shield_Shield_b0b0b0
usemtl b0b0b0
s 1
f 1/1/1 9/2/2 10/3/3 2/4/1
f 9/2/2 17/5/4 18/6/4 10/3/3
f 2/4/5 10/3/6 11/7/7 3/8/5
f 10/3/6 18/6/8 19/9/8 11/7/7
f 3/8/9 11/7/10 12/10/11 4/11/9
f 11/7/10 19/9/12 20/12/12 12/10/11
f 4/11/13 12/10/14 13/13/15 5/14/13
f 12/10/14 20/12/16 21/15/16 13/13/15
f 5/14/17 13/13/18 14/16/19 6/17/17
f 13/13/18 21/15/20 22/18/20 14/16/19
f 6/17/21 14/16/22 15/19/23 7/20/21
f 14/16/22 22/18/24 23/21/24 15/19/23
f 7/20/25 15/19/26 16/22/27 8/23/25
f 15/19/26 23/21/28 24/24/28 16/22/27
f 8/23/29 16/22/30 9/25/31 1/26/29
f 16/22/30 24/24/32 17/27/32 9/25/31
f 18/6/33 17/5/34 25/28/35
f 19/9/36 18/6/33 25/28/35
f 20/12/37 19/9/36 25/28/35
f 21/15/38 20/12/37 25/28/35
f 22/18/39 21/15/38 25/28/35
f 23/21/40 22/18/39 25/28/35
f 24/24/41 23/21/40 25/28/35
f 17/27/34 24/24/41 25/28/35
f 2/29/42 8/30/43 1/31/44
f 6/32/45 4/33/46 5/34/47
f 3/35/48 8/30/43 2/29/42
f 3/35/48 7/36/49 8/30/43
f 6/32/45 3/35/48 4/33/46
f 7/36/49 3/35/48 6/32/45
